M48
;Layer_Color=9474304
;FILE_FORMAT=4:4
METRIC,LZ
;TYPE=PLATED
T01F00S00C0.2540
T02F00S00C0.7620
T03F00S00C1.5240
%
T01
X0058166Y0017272
Y0018796
Y002032
Y0021844
Y0023368
Y0029464
Y0030988
Y0032512
Y0034036
Y003556
X0025146Y0023368
X0018288Y0018288
T02
X002794Y000254
X003048
X003302
X003556
X00381
X004064
X004318
X004572
X00508
X005334
X005588
X005842
X006096
X00635
Y00508
X006096
X005842
X005588
X005334
X00508
X004826
X004572
X0037592
X0035052
X0032512
X0029972
X0027432
X0024892
X0022352
X0019812
X0017272
X0014732
T03
X000508Y00254
Y003556
M30
